<?xml version="1.0" encoding="utf-8"?>
<!-- Generator: Adobe Illustrator 26.5.1, SVG Export Plug-In . SVG Version: 6.00 Build 0)  -->
<svg version="1.1" id="Layer_1" xmlns="http://www.w3.org/2000/svg" xmlns:xlink="http://www.w3.org/1999/xlink" x="0px" y="0px"
	 viewBox="0 0 442.38 288.65" style="enable-background:new 0 0 442.38 288.65;" xml:space="preserve">
<style type="text/css">
	.st0{fill:#FFFFFF;}
	.st1{fill:#B03A38;}
	.st2{fill:#F3BD53;}
	.st3{fill-rule:evenodd;clip-rule:evenodd;fill:#FFFFFF;}
	.st4{fill:#1F2568;}
	.st5{fill-rule:evenodd;clip-rule:evenodd;fill:#1F2568;}
</style>
<g>
	<path class="st4" d="M127.86,271.97c0,0-1.72-75.98-92.33-83.14l-27.89-1.17c0,0,25.01-22.28,68.2-22.28l-20.88,6.69
		c0,0,9.07,3,27.33,3.79l20.13,1.91c0,0,24.6,0.19,34.33,34.48C144.77,242.11,127.86,271.97,127.86,271.97z"/>
	<g>
		<g>
			<path class="st1" d="M155.46,187.56l-2.99,8.25h17.13l-8.6,23.77c-1.86,5.08-4.96,7.44-9.37,7.63
				c-6.32,0.26-8.62-2.03-10.86-7.16l-1.22-2.79c0.97,5.29,1.6,12.98,1.22,17.43c2.47,1.22,5.53,1.82,9.19,1.82
				c2.81,0,5.37-0.36,7.69-1.08l15.82-19.48l10.38-28.38H155.46z"/>
			<path class="st1" d="M210.55,187.56h-11.2l-39.73,48.94h12.1l8.09-10.49h22.8l0.59,10.49h11.32L210.55,187.56z M186.47,217.41
				l14.65-18.88l1.02,18.88H186.47z"/>
			<path class="st1" d="M253.28,187.56l-21.14,21.82l-5.16-21.82h-11.32l7.41,31.47l-6.31,17.48h11.33l6.15-16.99l30.72-31.95
				H253.28z"/>
			<path class="st2" d="M271.61,187.56l-3.41,9.23h15.66l-14.44,39.71h5.33l10.9-13.43l9.61-26.28h11.74l7.09-8.73l0.18-0.5H271.61z
				"/>
			<polygon class="st2" points="360.37,211.82 369.72,236.51 357.49,236.51 351.56,219.87 334.02,236.48 333.08,224.88 
				348.04,211.12 339.27,187.56 351.36,187.56 356.95,203.29 373.81,187.56 386.68,187.56 			"/>
			<polygon class="st2" points="401.27,187.56 398.21,195.96 386.81,195.96 389.87,187.56 			"/>
			<polygon class="st2" points="385.85,199.06 372.18,236.51 383.58,236.51 397.25,199.06 			"/>
			<path class="st2" d="M332.1,236.47l-0.02,0.03h0.03L332.1,236.47z"/>
			<path class="st2" d="M332.1,236.47l-3.95-48.91h-11.19l-39.74,48.94h12.11l8.09-10.49h22.8l0.58,10.49h11.32L332.1,236.47z
				 M304.08,217.41l14.66-18.88l1.01,18.88H304.08z"/>
		</g>
		<g>
			<polygon class="st4" points="424.02,217.78 393.59,219.55 394.84,216.1 			"/>
			<polygon class="st4" points="415.77,229.2 389.43,230.95 390.67,227.53 			"/>
			<polygon class="st4" points="434.75,206.36 397.71,208.25 399.05,204.55 			"/>
		</g>
	</g>
	<g>
		<path class="st4" d="M331.1,155.89c0,0-13.04-5.33-31.56,0.24c-32.99,9.93-46.73,6.18-59.33,1.9c0,0,25.09,2.77,36.7-3
			c14.31-7.1,23.15-10.95,37.73-9.24c14.58,1.71,17.08,3.86,17.08,3.86l1.53,1.48L331.1,155.89z"/>
		<path class="st4" d="M397.66,154.73c0,0,0.36,22.05-45.99,24.81c-46.35,2.77-85.09-4.15-85.09-4.15s55.46,1.04,75.98-2.33
			c20.51-3.37,34.76-10.11,34.76-10.11L397.66,154.73z"/>
		<path class="st4" d="M395.73,156.02c0-0.01,1.93-1.28,1.93-1.28c-11.57,4.61-22.17,2.69-31.94,1.37
			c-9.77-1.31-33.28-10.37-73.44-22.05c-40.16-11.69-91.89-11.2-112.33-4.45c-20.43,6.75-63.31,31.12-63.31,31.12
			s-5.18,3.43-23.21,3.72c-14.98,0.53-31.39,7.26-31.39,7.26s17.06,1.83,24.94,1.49c34.47,1.58,69.13,2.44,107.03-10.27
			c0,0-51.1,6.3-73.76,3.12c7.02-4.48,35.38-18.07,51.34-23.89c11.79-4.3,23.45-8.49,36.14-8.54c41.27-0.18,72.98,6.22,93.61,12.23
			c17.24,5.03,26.74,9.79,27.6,10.23c0.04,0.02,0.06,0.03,0.06,0.03c-21.89,0.99-29.48,8.4-29.48,8.4
			c23.15-8.73,48.84,0.49,72.9-0.82c0.66-0.04,1.3-0.08,1.93-0.12C374.35,163.56,382.5,163.38,395.73,156.02z"/>
	</g>
	<g>
		<g>
			<path class="st4" d="M271.12,250.73l-6.91,15.43h-17.5c1.91-6.47,0.46-10.49-1.89-12.98l11.42-5.42l5.05-11.26l-27.69,13.53
				l-3.13,6.96l2.21,0.58c2.35,0.61,3.87,1.6,4.55,2.95c0.68,1.35,0.62,3.24-0.19,5.63h-19c0.52-1.05,6.08-18.13,6.08-18.13
				l-10.03,1.28c0,0-5.48,15.54-6.21,16.85c-1.04,0-4.54-0.07-4.9-0.14c0.07-0.27,5.73-15.04,5.73-15.04h-9.15l-4.6,11.41
				c-1.64,3.71-5.23,3.99-7.03,4.12c0.14-0.49,5.99-13.77,5.99-13.77h-8.7l-4.26,9.17c-2.61,5.48-7.45,4.26-7.45,4.26l1.89-4.22
				c1.69-3.77,2.01-6.62,0.98-8.74c-1.21-2.43-4.07-3.67-8.54-3.67c-3.26,0-6.47,0.29-9.54,0.87l-0.99,0.18l-6.97,15.57h-1.75
				c-4.62,0-5.7-1.05-5.93-1.4c-0.19-0.28-0.7-1.45,0.87-4.96c1.1-2.44,2.59-4.71,4.41-6.74l3.64-4.02l-13.55,2.1
				c-2.31,7.9-4.11,12.41-5.98,16.58c0,0.31,1.14,2.26,1.32,2.53c1.91,2.81,5.79,4.23,11.86,4.33c-0.01,0-0.02,0.01-0.03,0.01h11.16
				l7.41-16.54c0.57-0.06,1.13-0.09,1.68-0.09c0.81,0,1.23,0.11,1.41,0.17c0,0.3-0.11,1.12-0.88,2.85l-6.09,13.6h13.18
				c2.36,0,4.43-0.55,6.2-1.63c0.05,0.07,0.11,0.14,0.15,0.19c0.61,0.68,1.41,1.16,2.42,1.44c0.78,0.23,1.7,0.35,2.74,0.35
				c1.14,0,2.22-0.12,3.24-0.35c1.56-0.34,2.98-0.96,4.25-1.83c0.44,0.45,0.98,0.82,1.63,1.09c1.24,0.51,3.07,0.74,5.77,0.74h70.96
				l10.69-23.86H271.12z"/>
			<path class="st4" d="M328.76,261.94l-3.3,7.38h-9.84l3.73-8.33c0.77-1.73,0.88-2.55,0.89-2.85c-0.18-0.07-0.6-0.17-1.42-0.17
				c-0.54,0-1.11,0.03-1.68,0.09l-7.41,16.54h-11.17c0.01,0,0.02-0.01,0.03-0.01c-6.05-0.1-9.93-1.52-11.85-4.33
				c-1.84-2.67-1.68-6.51,0.5-11.37c1.19-2.66,2.7-5.12,4.49-7.32l0.47-0.59l12.74-1.93l-3.64,4.02c-1.83,2.03-3.32,4.3-4.41,6.74
				c-1.57,3.51-1.06,4.68-0.87,4.96c0.23,0.35,1.3,1.4,5.92,1.4h1.75l6.98-15.57l0.99-0.18c3.06-0.58,6.28-0.87,9.54-0.87
				c4.46,0,7.34,1.24,8.53,3.67C330.77,255.31,330.45,258.17,328.76,261.94z"/>
			<path class="st4" d="M378.9,265.33c-1.11,2.49-2.63,5.29-4.5,8.34l-0.57,0.92h-48.2l15.58-34.81h10.02l-11.82,26.38h29.03
				c0.42-0.76,0.77-1.5,1.09-2.2c1.43-3.19,1.07-4.34,0.94-4.62c-0.35-0.67-1.85-1.07-4.02-1.07c-1.54,0-3.2,0.12-4.95,0.35
				l-3.43,0.45l3.88-8.67l1.08-0.14c2.26-0.28,4.29-0.42,6.03-0.42c5.64,0,9.17,1.37,10.81,4.2
				C381.44,256.67,381.12,260.37,378.9,265.33z"/>
		</g>
		<path class="st4" d="M181.85,274.58h5.99c-1.02,0.23-2.1,0.35-3.24,0.35C183.55,274.93,182.63,274.82,181.85,274.58z"/>
		<g>
			<circle class="st4" cx="302.82" cy="279.86" r="3.81"/>
			<circle class="st4" cx="294.62" cy="279.86" r="3.81"/>
		</g>
		<g>
			<circle class="st4" cx="280.5" cy="245.87" r="3.81"/>
			<circle class="st4" cx="272.3" cy="245.87" r="3.81"/>
		</g>
		<g>
			<circle class="st4" cx="150.38" cy="279.86" r="3.81"/>
			<circle class="st4" cx="142.18" cy="279.86" r="3.81"/>
		</g>
		<circle class="st4" cx="360.15" cy="279.86" r="3.81"/>
	</g>
	<path class="st4" d="M172.92,5.01c0,0,3.13-2.92-39.32,45.45c-48.81,55.63-70.91,96.52-39,104.4c0,0-9.06-24.43,22.06-37.43
		S179.61,94.44,172.92,5.01z"/>
	<circle class="st2" cx="114.88" cy="143.45" r="10.33"/>
	<path class="st5" d="M217.77,120.4c-4.79,0.08-13.23,0.48-17.51,0.8c2.06-14.48,2.65-29.39,1.61-43.8
		c-2.47-34.36-14.79-64.03-27.48-72.37C203.03,10.5,222.77,61.06,217.77,120.4z"/>
</g>
</svg>
